<?xml version="1.0" encoding="utf-8"?>
<!-- Generator: Adobe Illustrator 16.0.0, SVG Export Plug-In . SVG Version: 6.00 Build 0)  -->
<!DOCTYPE svg PUBLIC "-//W3C//DTD SVG 1.1//EN" "http://www.w3.org/Graphics/SVG/1.1/DTD/svg11.dtd">
<svg version="1.1" id="Layer_1" xmlns="http://www.w3.org/2000/svg" xmlns:xlink="http://www.w3.org/1999/xlink" x="0px" y="0px"
	 width="612px" height="792px" viewBox="0 0 612 792" enable-background="new 0 0 612 792" xml:space="preserve">
<g id="choose">
	<g>
		<path fill="#56BBEB" d="M317.989,337.062c-1.573-0.188-3.434,0.128-3.614,1.925c-0.226,2.236,1.771,2.612,3.644,2.862
			c7.598,1.019,13.539,4.949,18.19,10.868c2.839,3.616,4.026,8.007,5.079,12.406c0.347,1.447,1.021,2.767,2.688,2.312
			c1.385-0.38,2.01-1.59,1.995-3.211C345.846,352.487,329.938,336.929,317.989,337.062"/>
		<path fill="#56BBEB" d="M282.787,362.99c-0.49,2.443-0.073,4.078,1.734,4.437c2.051,0.405,2.394-1.56,2.878-3.007
			c0.874-2.585,1.416-5.321,2.572-7.764c3.685-7.803,10.125-12.305,18.289-14.548c1.722-0.476,3.89-0.816,3.165-3.231
			c-0.491-1.65-2.158-1.814-3.971-1.5C295.785,339.359,283.518,352.329,282.787,362.99"/>
		<path fill="#56BBEB" d="M318.026,346.486c-1.673-0.169-3.415-0.046-3.692,1.949c-0.232,1.649,1.304,2.413,2.672,2.654
			c8.139,1.434,12.687,6.572,14.877,14.193c0.43,1.499,1.313,2.68,2.876,2.208c1.368-0.412,1.966-1.686,1.822-3.331
			C335.939,356.631,325.483,346.611,318.026,346.486"/>
		<path fill="#56BBEB" d="M294.043,367.598c1.119-0.085,1.949-0.736,2.189-1.669c1.892-7.442,6.288-12.474,13.721-14.795
			c1.1-0.343,2.114-1.439,1.545-2.771c-0.583-1.36-1.763-1.893-3.398-1.654c-6.317,0.913-15.408,10.618-16.232,17.264
			C291.622,365.948,292.488,366.888,294.043,367.598"/>
		<path fill="#56BBEB" d="M304.561,395.919c0-10.242-0.034-19.92,0.008-29.599c0.027-5.969,3.492-10.174,8.276-10.204
			c4.811-0.031,8.332,4.153,8.417,10.107c0.056,3.953,0.162,7.914-0.025,11.859c-0.223,4.598,0.212,6.336,6.011,8.509
			c6.112,2.288,14.841-1.136,18.902,6.792c0.196,0.374,2.446-0.403,3.749-0.494c5.206-0.375,9.011,2.38,9.125,7.159
			c0.232,9.813,1.553,19.762-0.838,29.487c-4.242,17.302-19.549,27.376-38.002,25.217c-15.269-1.794-28.241-16.641-28.59-32.817
			c-0.109-5.139-0.044-10.279-0.008-15.418C291.653,397.684,295.558,394.396,304.561,395.919 M308.487,391.276
			c0,7.323,0.111,14.65-0.065,21.966c-0.055,2.315,1.304,6.519-1.703,6.477c-3.816-0.05-1.76-4.354-2.077-6.788
			c-0.331-2.529-0.102-5.139-0.067-7.712c0.051-3.151-1.104-5.701-4.496-5.657c-3.143,0.047-4.034,2.492-3.967,5.457
			c0.122,5.342,0,10.689,0.041,16.028c0.11,16.153,11.942,29.096,27.437,30.031c15.868,0.973,29.466-10.444,31.177-26.716
			c0.706-6.659,0.301-13.432,0.434-20.154c0.058-2.851,0.109-5.845-3.167-6.944c-3.775-1.265-4.642,1.813-5.639,4.407
			c-0.383,1.003-0.924,1.879-2.073,1.657c-1.018-0.204-1.656-1.046-1.711-2.136c-0.083-1.58,0.156-3.224-0.204-4.726
			c-0.419-1.762-1.566-3.223-3.563-3.527c-1.988-0.301-3.606,0.512-4.316,2.348c-0.632,1.624-0.556,3.959-3.007,3.572
			c-2.389-0.383-1.922-2.676-1.853-4.373c0.1-2.629-1.35-4.239-3.562-4.778c-2.191-0.537-3.743,1.031-4.551,2.959
			c-0.586,1.404-0.474,3.68-2.487,3.4c-2.337-0.325-1.8-2.72-1.813-4.393c-0.053-8.314,0.028-16.627-0.057-24.939
			c-0.03-2.823-0.305-5.936-4.14-5.993c-4.074-0.053-4.576,3.003-4.582,6.193C308.465,375.048,308.475,383.164,308.487,391.276"/>
		<path fill="#56BBEB" d="M317.989,337.062c11.948-0.131,27.856,15.428,27.985,27.162c0.014,1.624-0.613,2.835-1.994,3.211
			c-1.67,0.462-2.344-0.862-2.69-2.312c-1.051-4.399-2.24-8.791-5.079-12.406c-4.651-5.919-10.595-9.849-18.19-10.868
			c-1.874-0.25-3.869-0.628-3.644-2.862C314.553,337.19,316.416,336.873,317.989,337.062"/>
		<path fill="#56BBEB" d="M282.787,362.99c0.731-10.661,12.999-23.633,24.666-25.615c1.814-0.312,3.481-0.147,3.973,1.5
			c0.725,2.413-1.445,2.754-3.165,3.231c-8.163,2.243-14.604,6.745-18.29,14.547c-1.155,2.443-1.697,5.179-2.573,7.764
			c-0.484,1.451-0.828,3.414-2.878,3.007C282.713,367.068,282.297,365.433,282.787,362.99"/>
		<path fill="#56BBEB" d="M318.028,346.488c7.455,0.123,17.911,10.143,18.555,17.669c0.142,1.647-0.453,2.922-1.819,3.333
			c-1.566,0.468-2.446-0.714-2.873-2.208c-2.192-7.621-6.74-12.759-14.882-14.191c-1.367-0.244-2.902-1.007-2.671-2.656
			C314.614,346.44,316.354,346.317,318.028,346.488"/>
		<path fill="#56BBEB" d="M294.043,367.598c-1.555-0.709-2.421-1.649-2.175-3.628c0.822-6.644,9.912-16.352,16.232-17.264
			c1.638-0.237,2.815,0.295,3.398,1.654c0.568,1.332-0.445,2.43-1.545,2.771c-7.436,2.323-11.829,7.355-13.721,14.797
			C295.992,366.86,295.162,367.512,294.043,367.598"/>
	</g>
</g>
<g id="search">
	<g>
		<path fill="#56BBEB" d="M123.109,416.506l2.567-2.767c6.853-7.371,10.626-17.766,10.626-29.278
			c0-25.625-20.568-46.475-45.85-46.475c-25.614,0-46.455,20.85-46.455,46.475c0,25.616,20.841,46.456,46.455,46.456
			c8.89,0,17.898-2.892,26.776-8.593l2.768-1.78l31.812,33.15c0.353,0.344,1.178,0.616,2.047,0.616
			c0.272-0.008,0.947-0.175,1.66-0.443c0.755-1.337,0.624-2.688-0.393-4.022L123.109,416.506z M90.45,425.387
			c-22.902,0-41.535-18.365-41.535-40.926c0-22.564,18.633-40.922,41.535-40.922c22.57,0,40.928,18.357,40.928,40.922
			C131.378,407.021,113.021,425.387,90.45,425.387"/>
	</g>
</g>
<g id="visit">
	<g>
		<path fill="#56BBEB" d="M551.063,434.403c-0.83-0.292-1.528-0.779-2.049-1.402c-0.618,1.06-1.336,2.102-2.116,3.096
			c-0.72,0.907-1.48,1.781-2.31,2.61c-2.734,2.696-6.074,4.819-9.701,6.137c-3.466,1.297-7.323,1.959-11.509,2.013
			c-3.125,0.065-6.201-0.424-9.13-1.467c-0.683-0.251-1.352-0.522-2.021-0.819c-0.538-0.238-1.073-0.496-1.611-0.779
			c1.906-2.274,3.679-4.883,5.39-7.938c1.97-3.506,3.711-7.341,5.308-11.694c0.732-1.949,1.398-3.989,2.017-6.054
			c0.309-1.019,0.603-2.045,0.879-3.084l0.391-1.564l0.309-1.342l0.146-0.603l-0.389-0.584c-0.229-0.36-0.587-0.629-1.144-0.869
			l-0.145-0.068l-1.238-0.251h-0.159c-0.443,0.009-0.9,0.041-1.256,0.263c-0.161,0.086-0.405,0.267-0.586,0.559
			c-0.113,0.157-0.193,0.369-0.241,0.603l-0.262,1.091l-0.376,1.475c-0.242,0.984-0.519,1.96-0.813,2.918
			c-0.57,1.965-1.203,3.894-1.904,5.764c-1.482,4.102-3.11,7.692-4.949,10.978c-1.678,3.004-3.402,5.524-5.272,7.684
			c-1.24-0.929-2.46-1.96-3.697-3.1c-3.026-2.85-5.664-6.023-8.074-9.032l-1.3-1.628c-0.863-1.084-1.726-2.181-2.622-3.262
			c-1.414-1.694-2.798-3.338-4.523-4.834c-0.765-0.663-1.826-1.494-3.144-2.087c-0.213-0.08-0.406-0.168-0.618-0.242
			c-1.204-0.424-2.541-0.555-3.793-0.35c-2.326,0.358-4.509,1.506-6.689,3.496c-3.562,3.332-5.779,7.91-6.085,12.583
			c-0.163,2.465,0.276,4.957,1.236,7.21c0.912,2.135,2.297,4.101,4.136,5.861c2.896,2.764,6.542,4.865,11.474,6.605l0.359,0.132
			c3.225,1.141,8.185,2.23,13.459,0.901c3.826-0.915,7.586-3.016,10.938-6.127c1.01,0.562,2.003,1.067,3.011,1.509
			c0.684,0.299,1.369,0.569,2.051,0.813c3.518,1.247,7.342,1.842,11.037,1.718c4.67-0.097,9.001-0.912,12.89-2.408
			c5.681-2.121,10.613-5.941,14.145-10.758c0.8-1.076,1.513-2.206,2.149-3.385C552.138,434.682,551.584,434.58,551.063,434.403
			 M495.251,448.466c-3.27,0.824-6.983,0.553-10.839-0.806l-0.276-0.106c-4.135-1.467-7.261-3.248-9.57-5.453
			c-1.351-1.289-2.361-2.711-3.015-4.231c-0.664-1.54-0.958-3.258-0.86-4.967c0.196-3.383,1.854-6.873,4.459-9.334
			c0.977-0.899,2.473-2.042,4.134-2.284c0.537-0.089,1.01-0.05,1.499,0.12c0.065,0.024,0.144,0.058,0.225,0.094
			c0.604,0.259,1.254,0.691,2.004,1.327c1.417,1.229,2.752,2.773,3.988,4.24c0.847,1.019,1.691,2.065,2.522,3.117l1.367,1.701
			c2.558,3.131,5.34,6.444,8.611,9.451c1.171,1.084,2.344,2.085,3.55,2.986C500.575,446.408,497.904,447.821,495.251,448.466"/>
		<path fill="#56BBEB" d="M521.064,397.732c-2.294-0.814-4.526-2.409-6.46-4.605c-2.019-2.32-3.549-5.299-4.394-8.605
			c-1.32-5.214-1.336-10.986-0.098-18.162c0.521-2.833,1.219-5.743,2.099-8.667c0.439-1.417,0.896-2.833,1.401-4.216
			c0.586-1.677,1.157-3.019,1.741-4.213c1.644-3.33,3.615-5.755,6.004-7.435c3.011-2.082,6.741-2.729,9.977-1.742l1.532,0.475
			l-1.4,3.76l-1.384-0.463c-0.944-0.32-2.146-0.387-3.291-0.172c-1.087,0.188-2.163,0.648-3.188,1.36
			c-1.807,1.267-3.386,3.277-4.702,5.965c-1.156,2.351-1.953,4.939-2.784,7.837c-0.781,2.773-1.385,5.541-1.807,8.208
			c-0.991,6.471-0.881,11.794,0.358,16.258c0.749,2.698,1.922,4.959,3.468,6.697c1.465,1.71,3.435,2.866,5.52,4.086l1.854,1.107
			l-1.142,3.237l-1.234-0.194C522.434,398.149,521.75,397.975,521.064,397.732"/>
		<path fill="#56BBEB" d="M531.955,401.536c-0.586-0.208-1.141-0.448-1.661-0.736l-1.169-0.609l1.188-3.351l1.283,0.25
			c2.638,0.514,5.227,0.943,7.699,0.497c2.329-0.386,4.675-1.406,6.95-3.035c3.776-2.714,7.211-6.778,10.498-12.454
			c1.349-2.337,2.619-4.873,3.758-7.527c1.173-2.776,2.185-5.282,2.767-7.829c0.668-2.922,0.702-5.474,0.1-7.602
			c-0.342-1.172-0.896-2.229-1.609-3.052c-0.766-0.887-1.743-1.605-2.672-1.953l-1.367-0.521l1.288-3.791l1.482,0.6
			c3.158,1.269,5.648,4.117,6.656,7.631c0.799,2.803,0.799,5.925-0.019,9.555c-0.291,1.328-0.715,2.718-1.317,4.387
			c-0.476,1.366-1.008,2.767-1.563,4.133c-1.172,2.825-2.46,5.537-3.842,8.041c-3.563,6.356-7.228,10.81-11.521,14.015
			c-2.751,2.017-5.798,3.366-8.811,3.889C537.198,402.582,534.38,402.396,531.955,401.536"/>
		<path fill="#56BBEB" d="M528.441,340.424c0.503-1.463,1.497-2.449,2.213-2.201l4.086,2.761c0.438,0.162,0.522,1.059,0.196,2.003
			l-0.312,0.856c-0.34,0.942-0.958,1.584-1.397,1.429l-4.933-0.424c-0.7-0.25-0.847-1.641-0.324-3.108L528.441,340.424z"/>
		<path fill="#56BBEB" d="M562.618,352.534c0.521-1.463,0.342-2.855-0.39-3.116l-5.078-0.487c-0.455-0.154-1.104,0.479-1.433,1.423
			l-0.309,0.854c-0.323,0.949-0.226,1.847,0.229,2.009l4.249,2.825c0.719,0.259,1.741-0.724,2.263-2.181L562.618,352.534z"/>
		<path fill="#56BBEB" d="M524.29,412.389c-1.483-0.091-2.688-0.523-3.892-1.374c-0.896-0.316-1.463-12.721-1.105-15.404
			c0.259-2.061,2.831-2.974,4.786-2.287l8.494,3.011c1.938,0.691,3.354,3.028,2.282,4.789
			C533.418,403.431,525.184,412.708,524.29,412.389"/>
		<path fill="#56BBEB" d="M555.574,421.676c-4.46-1.588-9.376,0.756-10.973,5.223c-1.173,3.354-0.163,6.941,2.294,9.198
			c0.828,0.763,1.822,1.364,2.931,1.766c0.227,0.083,0.456,0.146,0.682,0.203c4.281,1.142,8.773-1.187,10.287-5.429
			C562.376,428.163,560.048,423.265,555.574,421.676 M557.329,431.408c-0.716,2.017-2.636,3.286-4.671,3.273
			c-0.522,0-1.075-0.102-1.596-0.278c-0.83-0.293-1.528-0.779-2.049-1.402c-1.141-1.288-1.564-3.144-0.946-4.874
			c0.912-2.56,3.727-3.897,6.284-2.995C556.905,426.045,558.241,428.854,557.329,431.408"/>
	</g>
</g>
<g id="hos_x5F_blue">
	<g id="XMLID_13_">
		<path id="XMLID_35_" fill="#FFFFFF" d="M159.088,196.699c0-1.133-0.447-2.107-1.092-2.561v5.118
			C158.642,198.806,159.088,197.837,159.088,196.699"/>
		<path id="XMLID_34_" fill="#FFFFFF" d="M142.312,169.724h-9.969v-2.692c0-1.063,0.381-2.123,1.146-2.93
			c0.764-0.811,1.762-1.217,2.763-1.217h2.151c1.002,0,2,0.406,2.765,1.217c0.761,0.807,1.145,1.868,1.145,2.93L142.312,169.724
			L142.312,169.724z"/>
		<path id="XMLID_4_" fill="#FFFFFF" d="M158.106,194.226c-0.034-0.406-0.099-0.815-0.184-1.223
			c-0.15-0.711-0.375-1.393-0.657-2.029l-8.193-20.896c-0.314-0.7-0.813-1.322-1.476-1.771c-0.661-0.443-1.402-0.654-2.138-0.654
			H92.861v41.879h9.998c0-5.247,4.012-9.499,8.96-9.499c4.949,0,8.958,4.252,8.958,9.499h10.133c0-5.247,4.009-9.499,8.959-9.499
			c4.95,0,8.956,4.252,8.956,9.499h9.32v-14.396C158.145,194.833,158.13,194.531,158.106,194.226 M120.356,189.429h-5.212v5.526
			h-6.649v-5.526h-5.212v-7.046h5.212v-5.521h6.649v5.521h5.212V189.429L120.356,189.429z M135.788,192.191
			c-0.402,0-0.804-0.162-1.11-0.484c-0.307-0.324-0.457-0.752-0.457-1.172v-13.576c0-0.378,0.134-0.76,0.412-1.049
			c0.27-0.286,0.63-0.434,0.989-0.434h7.996c0.575,0,1.155,0.17,1.675,0.532c0.523,0.358,0.901,0.855,1.131,1.416l4.84,11.771
			c0.262,0.64,0.223,1.402-0.161,2.027c-0.391,0.628-1.031,0.969-1.69,0.969H135.788L135.788,192.191z"/>
		<path id="XMLID_26_" fill="#FFFFFF" d="M111.819,201.171c-4.355,0-7.884,3.741-7.884,8.358c0,4.614,3.528,8.355,7.884,8.355
			c4.354,0,7.881-3.741,7.881-8.355C119.7,204.912,116.171,201.171,111.819,201.171 M111.819,212.916
			c-1.764,0-3.192-1.518-3.192-3.387s1.426-3.385,3.192-3.385c1.764,0,3.194,1.516,3.194,3.385S113.583,212.916,111.819,212.916"/>
		<path id="XMLID_3_" fill="#FFFFFF" d="M139.98,201.171c-4.354,0-7.881,3.741-7.881,8.358c0,4.614,3.528,8.355,7.881,8.355
			s7.884-3.741,7.884-8.355C147.864,204.912,144.333,201.171,139.98,201.171 M139.98,212.916c-1.762,0-3.194-1.518-3.194-3.387
			s1.433-3.385,3.194-3.385c1.765,0,3.193,1.516,3.193,3.385S141.745,212.916,139.98,212.916"/>
		<path id="XMLID_22_" fill="#FFFFFF" d="M160.784,207.871c0,0.916-0.698,1.658-1.564,1.658h-7.035
			c-0.864,0-1.565-0.742-1.565-1.658v-3.452c0-0.917,0.701-1.659,1.565-1.659h7.035c0.866,0,1.564,0.742,1.564,1.659V207.871z"/>
		<path id="XMLID_21_" fill="#FFFFFF" d="M99.997,207.871c0,0.916-0.697,1.658-1.562,1.658h-7.038c-0.863,0-1.562-0.742-1.562-1.658
			v-3.452c0-0.917,0.698-1.659,1.562-1.659h7.036c0.864,0,1.563,0.742,1.563,1.659L99.997,207.871L99.997,207.871z"/>
	</g>
</g>
<path id="XMLID_5_" fill="#FFFFFF" d="M264.397,184.118l3.082-9.748l5.136,1.625l1.441-4.563l-9.698-3.068l-4.004,12.664
	c-0.006-0.004-0.012-0.008-0.016-0.008l-1.488,4.707c5.359,3.612,7.96,10.448,5.916,16.914c-2.487,7.87-10.907,12.245-18.778,9.758
	c-7.866-2.486-12.24-10.91-9.755-18.777c2.047-6.465,8.097-10.561,14.553-10.438l1.492-4.711h-0.003l3.956-12.519l-9.697-3.065
	l-1.444,4.563l5.137,1.623l-3.037,9.604c-7.056,1.213-13.213,6.215-15.52,13.5c-3.282,10.383,2.494,21.504,12.878,24.788
	c10.383,3.283,21.502-2.493,24.784-12.879C271.637,196.802,269.475,189.167,264.397,184.118"/>
<path id="XMLID_54_" fill="#FFFFFF" d="M237.375,193.76c-2.302,7.277,1.735,15.05,9.016,17.353
	c7.281,2.303,15.048-1.734,17.353-9.019c-5.354,0.05-8.146-5.545-14.266-4.538C243.36,198.561,240.697,198.174,237.375,193.76
	 M258.296,203.104c1.086,0.342,1.688,1.5,1.344,2.582c-0.341,1.084-1.498,1.684-2.581,1.342c-1.085-0.344-1.688-1.5-1.344-2.582
	C256.06,203.361,257.217,202.76,258.296,203.104 M251.693,208.148c0.353,0.108,0.552,0.483,0.439,0.836
	c-0.112,0.354-0.489,0.549-0.842,0.436c-0.351-0.108-0.543-0.485-0.43-0.838C250.968,208.23,251.344,208.035,251.693,208.148
	 M252.322,201.91c0.326,0.104,0.505,0.451,0.4,0.773c-0.104,0.325-0.447,0.504-0.774,0.403c-0.322-0.104-0.507-0.448-0.403-0.776
	C251.649,201.986,251.996,201.807,252.322,201.91 M247.465,206.043c0.979,0.312,1.524,1.359,1.213,2.342
	c-0.309,0.978-1.355,1.523-2.337,1.216c-0.981-0.312-1.527-1.359-1.216-2.341C245.436,206.277,246.483,205.734,247.465,206.043
	 M246.973,203.012c0.323,0.104,0.505,0.45,0.4,0.774c-0.104,0.324-0.45,0.504-0.774,0.4c-0.325-0.101-0.504-0.449-0.403-0.773
	C246.302,203.09,246.646,202.908,246.973,203.012 M242.72,201.504c-0.211,0.67-0.925,1.041-1.596,0.828
	c-0.67-0.213-1.044-0.928-0.831-1.598c0.214-0.668,0.926-1.039,1.6-0.828C242.56,200.117,242.933,200.832,242.72,201.504"/>
<g id="doc_x5F_blue">
	<g id="XMLID_45_">
		<path id="XMLID_49_" fill="#FFFFFF" d="M388.031,162.886h-16.354c-2.354,0-4.267,1.908-4.267,4.271v8.293
			c0,2.353,1.912,4.771,4.267,4.771h16.354c2.354,0,4.262-2.418,4.262-4.771v-8.293
			C392.293,164.794,390.387,162.886,388.031,162.886 M389.45,175.448c0,0.783-0.635,1.42-1.419,1.42h-16.354
			c-0.784,0-1.421-0.637-1.421-1.42v-8.293c0-0.791,0.636-1.426,1.421-1.426h16.354c0.784,0,1.419,0.635,1.419,1.426V175.448
			L389.45,175.448z"/>
		<path id="XMLID_46_" fill="#FFFFFF" d="M411.019,171.603h-63.042c-2.354,0-4.262,1.912-4.262,4.268v37.752
			c0,2.353,1.906,4.264,4.262,4.264h63.042c2.354,0,4.263-1.911,4.263-4.264V175.87C415.28,173.515,413.371,171.603,411.019,171.603
			 M390.043,196.468h-7.419v7.42h-5.539v-7.42h-7.418v-5.536h7.418v-7.419h5.539v7.419h7.419V196.468z"/>
	</g>
</g>
<g id="blood_x5F_blue">
	<path id="XMLID_7_" fill="#FFFFFF" d="M519.238,186.101c-3.367-9.024-9.34-16.547-16.497-22.788l-0.375-0.428
		c-2.261,7.451-5.398,15.022-7.985,22.354c-2.849,8.07-5.212,19.891,0.743,27.205c5.242,6.438,15.365,7.394,21.47,1.623
		C523.712,207.336,522.327,194.394,519.238,186.101 M517.11,201.503c-0.192,2.223-1.72,9.039-2.975,4.21
		c-1.2-4.645-0.489-11.318-1.013-16.064c-0.567-5.134-2.183-9.959-3.925-14.796C509.457,175.316,518.018,191.068,517.11,201.503"/>
</g>
<path fill="none" stroke="#FFFFFF" stroke-width="0.987" stroke-miterlimit="10" d="M293.185,594.206
	c0.009,0.128,0.043,0.12,0.096,0.019c0.22,0.03,0.441,0.061,0.661,0.092c0.682,0.143,1.37,0.096,2.057,0.061
	c0.208-0.023,0.416-0.048,0.624-0.072c0.847-0.104,1.732-0.015,2.501-0.504c2.77-0.939,5.089-2.482,6.703-4.977
	c0.508-0.495,0.781-1.129,1.043-1.768c0.156-0.334,0.329-0.662,0.467-1.002c3.298-8.137-2.851-17.46-11.624-17.583
	c-5.36-0.074-9.479,2.219-11.958,6.965c-2.451,4.695-1.97,9.333,1.049,13.693c0.728,1.056,1.543,2.022,2.692,2.649
	c0.79,0.723,1.722,1.197,2.715,1.566c0.207,0.291,0.52,0.243,0.814,0.254l0.023,0.022c0.075,0.282,0.241,0.364,0.508,0.237
	c0.14,0.033,0.28,0.066,0.421,0.101c0.069,0.017,0.139,0.032,0.209,0.05c0.066,0.033,0.139,0.049,0.214,0.045
	c0.198,0.186,0.429,0.198,0.675,0.125C293.107,594.205,293.145,594.214,293.185,594.206z M312.313,592.449
	c0.776,1.037,1.87,1.496,3.103,1.703c0.498,0.246,1.017,0.396,1.579,0.322c0.489,0.373,1.032,0.209,1.564,0.158
	c0.529-0.016,1.077,0.114,1.573-0.186c4.286-0.686,8.305-4.959,7.561-10.704c-0.919-7.096-9.452-10.561-15.184-6.256
	c-0.98,0.738-1.426,1.48-1.286,2.789c0.286,2.695-0.108,5.321-1.448,7.751c-0.275,0.498-0.24,1.094,0.036,1.609
	c0.312,0.582,0.59,1.197,1.14,1.616C311.374,591.688,311.645,592.296,312.313,592.449z M314.121,613.986
	c0.151,0.088,0.293,0.135,0.373-0.088c0.021-0.184,0.07-0.369,0.059-0.549c-0.481-7.512-5.596-14.178-12.703-16.726
	c-0.531-0.19-0.992-0.101-1.506,0.067c-3.396,1.104-6.805,1.154-10.195-0.006c-0.647-0.222-1.201-0.185-1.822,0.045
	c-4.236,1.568-7.434,4.383-9.754,8.199c-1.665,2.738-2.637,5.717-2.623,8.965c0.069,0.228,0.209,0.182,0.36,0.092
	c0.161,0.006,0.322,0.012,0.483,0.017c0.293,0.03,0.587,0.087,0.88,0.087c11.395,0.004,22.789,0.004,34.184-0.002
	c0.367-0.001,0.734-0.063,1.103-0.094c0.159,0,0.318,0,0.478,0c0.071,0,0.144,0,0.215,0
	C313.808,613.99,313.964,613.988,314.121,613.986z M324.908,609.684v0.004c2.268,0.002,4.536-0.022,6.804,0.014
	c0.721,0.013,1.035-0.174,0.899-0.938c-0.981-5.516-3.987-9.414-9.186-11.588c-0.451-0.189-0.843-0.146-1.285-0.002
	c-2.358,0.77-4.769,0.906-7.133,0.168c-1.142-0.355-2.072-0.186-3.069,0.311c-1.374,0.686-1.382,0.66-0.354,1.746
	c2.5,2.637,4.31,5.688,5.223,9.205c0.217,0.836,0.506,1.098,1.298,1.088C320.372,609.666,322.641,609.684,324.908,609.684z"/>
<path fill="#FFFFFF" d="M239.345,606.886c-0.357-0.127-0.66-0.338-0.891-0.607c-0.268,0.461-0.575,0.914-0.916,1.346
	c-0.309,0.393-0.644,0.771-1.007,1.131c-1.181,1.169-2.634,2.092-4.21,2.665c-1.503,0.56-3.18,0.851-4.993,0.872
	c-1.358,0.029-2.69-0.186-3.963-0.639c-0.297-0.106-0.588-0.223-0.878-0.353c-0.231-0.104-0.464-0.218-0.698-0.342
	c0.827-0.985,1.598-2.119,2.34-3.442c0.856-1.525,1.611-3.186,2.305-5.074c0.313-0.851,0.607-1.734,0.875-2.631
	c0.133-0.443,0.259-0.888,0.379-1.34l0.171-0.676l0.135-0.584l0.061-0.262l-0.168-0.256c-0.098-0.151-0.256-0.271-0.492-0.375
	l-0.064-0.029l-0.536-0.111h-0.073c-0.193,0.004-0.392,0.02-0.543,0.114c-0.076,0.041-0.18,0.116-0.259,0.243
	c-0.048,0.07-0.086,0.158-0.105,0.263l-0.11,0.474l-0.161,0.641c-0.111,0.424-0.227,0.847-0.354,1.268
	c-0.249,0.848-0.527,1.688-0.827,2.5c-0.647,1.778-1.352,3.336-2.148,4.766c-0.729,1.305-1.481,2.397-2.289,3.332
	c-0.537-0.401-1.071-0.85-1.602-1.346c-1.316-1.234-2.463-2.611-3.508-3.918l-0.565-0.709c-0.373-0.471-0.749-0.943-1.134-1.414
	c-0.613-0.736-1.219-1.449-1.964-2.102c-0.335-0.286-0.793-0.646-1.368-0.902c-0.085-0.037-0.174-0.074-0.265-0.107
	c-0.521-0.182-1.106-0.24-1.646-0.151c-1.007,0.157-1.958,0.653-2.908,1.519c-1.541,1.447-2.505,3.437-2.64,5.465
	c-0.07,1.066,0.12,2.15,0.536,3.127c0.395,0.924,0.998,1.781,1.797,2.543c1.254,1.201,2.836,2.111,4.978,2.869l0.154,0.057
	c1.403,0.496,3.556,0.966,5.846,0.391c1.658-0.396,3.291-1.311,4.75-2.658c0.432,0.244,0.868,0.465,1.304,0.653
	c0.294,0.13,0.591,0.247,0.89,0.354c1.526,0.539,3.184,0.799,4.788,0.744c2.025-0.043,3.907-0.397,5.596-1.045
	c2.464-0.924,4.608-2.58,6.136-4.67c0.348-0.468,0.661-0.957,0.938-1.469C239.809,607.006,239.572,606.964,239.345,606.886
	 M215.119,612.989c-1.418,0.357-3.029,0.24-4.702-0.35l-0.123-0.045c-1.791-0.635-3.146-1.408-4.15-2.365
	c-0.588-0.559-1.027-1.178-1.311-1.838c-0.287-0.666-0.417-1.412-0.376-2.154c0.086-1.467,0.812-2.983,1.943-4.051
	c0.423-0.392,1.073-0.885,1.79-0.996c0.237-0.037,0.442-0.018,0.648,0.055c0.035,0.013,0.066,0.025,0.104,0.041
	c0.259,0.111,0.54,0.3,0.865,0.574c0.619,0.535,1.197,1.203,1.731,1.842c0.369,0.441,0.736,0.896,1.099,1.352l0.594,0.739
	c1.105,1.358,2.318,2.798,3.732,4.103c0.509,0.471,1.024,0.905,1.541,1.297C217.434,612.097,216.274,612.712,215.119,612.989"/>
<path fill="#FFFFFF" d="M226.325,590.97c-0.996-0.352-1.966-1.043-2.805-1.998c-0.876-1.008-1.535-2.299-1.909-3.735
	c-0.569-2.263-0.581-4.767-0.038-7.882c0.221-1.23,0.527-2.494,0.911-3.762c0.186-0.615,0.39-1.231,0.605-1.828
	c0.258-0.73,0.499-1.313,0.758-1.832c0.716-1.444,1.568-2.498,2.606-3.223c1.302-0.908,2.921-1.189,4.33-0.758l0.667,0.205
	l-0.607,1.629l-0.602-0.199c-0.415-0.137-0.935-0.164-1.43-0.074c-0.474,0.082-0.938,0.281-1.384,0.592
	c-0.782,0.55-1.469,1.421-2.04,2.589c-0.504,1.021-0.845,2.144-1.208,3.399c-0.337,1.205-0.601,2.408-0.784,3.564
	c-0.431,2.807-0.38,5.117,0.155,7.059c0.327,1.17,0.832,2.148,1.503,2.906c0.637,0.741,1.49,1.241,2.393,1.771l0.811,0.48
	l-0.499,1.407l-0.539-0.083C226.921,591.151,226.62,591.075,226.325,590.97"/>
<path fill="#FFFFFF" d="M231.05,592.62c-0.251-0.089-0.495-0.195-0.724-0.316l-0.503-0.266l0.516-1.453l0.556,0.107
	c1.148,0.223,2.267,0.408,3.339,0.218c1.013-0.169,2.027-0.612,3.018-1.321c1.636-1.176,3.129-2.941,4.56-5.402
	c0.584-1.014,1.133-2.115,1.631-3.27c0.505-1.201,0.946-2.291,1.197-3.396c0.29-1.268,0.305-2.377,0.043-3.299
	c-0.147-0.51-0.389-0.969-0.699-1.326c-0.331-0.385-0.752-0.692-1.159-0.848l-0.591-0.225l0.554-1.646l0.646,0.26
	c1.371,0.552,2.45,1.791,2.889,3.314c0.349,1.215,0.347,2.572-0.007,4.148c-0.128,0.574-0.309,1.18-0.568,1.902
	c-0.209,0.596-0.439,1.203-0.684,1.797c-0.504,1.226-1.064,2.398-1.666,3.488c-1.548,2.76-3.136,4.69-4.999,6.08
	c-1.198,0.881-2.518,1.465-3.824,1.691C233.323,593.077,232.105,592.994,231.05,592.62"/>
<path fill="#FFFFFF" d="M229.522,566.095c0.225-0.636,0.655-1.062,0.962-0.953l1.775,1.201c0.191,0.067,0.229,0.457,0.083,0.865
	l-0.132,0.373c-0.146,0.411-0.418,0.688-0.61,0.62l-2.135-0.185c-0.306-0.108-0.372-0.713-0.147-1.346L229.522,566.095z"/>
<path fill="#FFFFFF" d="M244.358,571.354c0.226-0.635,0.15-1.242-0.167-1.354l-2.205-0.211c-0.198-0.07-0.477,0.207-0.622,0.615
	l-0.132,0.373c-0.145,0.41-0.103,0.801,0.095,0.871l1.845,1.227c0.317,0.111,0.757-0.313,0.982-0.947L244.358,571.354z"/>
<path fill="#FFFFFF" d="M227.722,597.335c-0.64-0.041-1.167-0.229-1.689-0.599c-0.388-0.138-0.629-5.522-0.478-6.688
	c0.115-0.892,1.229-1.289,2.076-0.99l3.685,1.308c0.846,0.3,1.461,1.312,0.989,2.075
	C231.687,593.442,228.109,597.472,227.722,597.335"/>
<path fill="#FFFFFF" d="M241.303,601.362c-1.939-0.689-4.071,0.328-4.76,2.268c-0.514,1.455-0.072,3.016,0.995,3.994
	c0.357,0.328,0.787,0.59,1.273,0.764c0.098,0.035,0.192,0.064,0.29,0.09c1.861,0.492,3.816-0.516,4.469-2.357
	C244.256,604.179,243.242,602.05,241.303,601.362 M242.067,605.587c-0.313,0.879-1.143,1.428-2.028,1.422
	c-0.23-0.004-0.467-0.045-0.694-0.123c-0.357-0.127-0.66-0.338-0.891-0.605c-0.493-0.564-0.676-1.365-0.407-2.117
	c0.394-1.111,1.614-1.689,2.722-1.297C241.881,603.259,242.462,604.479,242.067,605.587"/>
<path fill="none" stroke="#FFFFFF" stroke-width="2.055" stroke-miterlimit="10" d="M380.595,583.174
	c-0.941-1.118-2.412-1.677-4.061-1.677c-1.678,0-3.148,0.559-4.078,1.677c-1.104,1.119-1.66,2.385-1.66,4.062
	c0,1.648,0.557,2.943,1.66,4.063c0.93,0.912,2.4,1.648,4.078,1.648c1.648,0,3.119-0.736,4.061-1.648
	c1.09-1.119,1.842-2.414,1.842-4.063C382.437,585.559,381.685,584.293,380.595,583.174z"/>
<path fill="none" stroke="#FFFFFF" stroke-width="2.055" stroke-miterlimit="10" d="M391.854,586.117
	c0,7.741-13.674,29.169-13.863,29.522l-0.545,1.117l-0.912,1.268l-0.941-1.473l-0.545-0.912l-0.191-0.176
	c-0.369-0.736-3.695-5.916-6.844-11.805c-3.311-6.268-6.635-13.656-6.635-17.542c0-0.911,0-2.03,0.174-2.943
	c0.191-0.911,0.561-1.854,0.928-2.766c0.367-0.913,0.928-1.648,1.297-2.591c0.559-0.736,1.293-1.472,2.029-2.208
	c0.736-0.735,1.486-1.294,2.207-1.854c0.928-0.56,1.664-1.089,2.783-1.472c0.91-0.354,1.854-0.56,2.766-0.735
	c0.926-0.177,2.031-0.384,2.973-0.384c1.088,0,2.031,0.207,2.943,0.384c1.117,0.176,2.029,0.382,2.959,0.735
	c0.926,0.383,1.66,0.912,2.574,1.472c0.926,0.56,1.678,1.118,2.223,1.854c1.486,1.296,2.59,2.944,3.324,4.799
	c0.369,0.912,0.736,1.647,0.928,2.589c0,0.354,0.178,0.914,0.178,1.473h0.191v1.089V586.117z"/>
</svg>
